<svg xmlns="http://www.w3.org/2000/svg" viewBox="0 0 400 300" width="406" height="306" class="illustration styles_illustrationTablet__1DWOa"><g id="_431_meal_flatline" data-name="#431_meal_flatline"><circle cx="199.98" cy="150" r="116.32" fill="#fff"></circle><path d="M200,266.82A116.82,116.82,0,1,1,316.8,150,117,117,0,0,1,200,266.82Zm0-232.64A115.82,115.82,0,1,0,315.8,150,116,116,0,0,0,200,34.18Z" fill="#231f20"></path><path d="M200,254.46A104.46,104.46,0,1,1,304.44,150,104.58,104.58,0,0,1,200,254.46Zm0-207.92A103.46,103.46,0,1,0,303.44,150,103.58,103.58,0,0,0,200,46.54Z" fill="#d1d3d4"></path><path d="M277.48,208.65c-4.68,7.17-8.71,13.91-15.84,18.81-7.81,5.36-17.83,7.59-26.67,4.56-9.06-3.11-15.69-11.07-21.85-18.68-3.8-4.7-7.66-9.5-9.85-15.21-2.74-7.17-2.63-15.13-2.45-22.86,0-.2,0-.41,0-.61.39-16.85,1-33.94,5.88-50a58.85,58.85,0,0,1,7-15.59c4.95-7.44,12.14-13.1,16.58-20.88,1.44-2.53,2.58-5.26,4.29-7.6,3.94-5.38,10.63-8,17.07-7.94s12.66,2.74,18.1,6.36a19.8,19.8,0,0,1,5.83,5.41c3.38,5.17,2.57,12,3.13,18.3.61,6.81,3,13.33,3.84,20.12a91.71,91.71,0,0,1,.12,16.49q-.9,16.78-1.79,33.57a46.37,46.37,0,0,0,.34,11.48c0,.12,0,.25.07.37.51,2.38,1.39,4.65,1.8,7.05C284.34,199.05,281.05,203.18,277.48,208.65Z" fill="#fff"></path><path d="M243.38,233.88a26.6,26.6,0,0,1-8.58-1.39c-9.46-3.25-16.45-11.89-22.07-18.83C209,209,205,204.14,202.8,198.31c-2.84-7.44-2.65-15.74-2.48-23.06v-.6c.42-18.17,1.16-34.48,5.9-50.15a58.83,58.83,0,0,1,7.05-15.73A84.46,84.46,0,0,1,221,99.35c3.18-3.54,6.48-7.21,8.88-11.42.49-.86.95-1.75,1.4-2.63a35.7,35.7,0,0,1,2.93-5c3.76-5.15,10.47-8.25,17.48-8.15,5.92.1,12.1,2.27,18.37,6.44a20.51,20.51,0,0,1,6,5.56c2.62,4,2.79,9,3,13.84.05,1.55.11,3.15.24,4.68a79.36,79.36,0,0,0,2,10.78,91.62,91.62,0,0,1,1.85,9.33,92.68,92.68,0,0,1,.12,16.57l-1.79,33.58a45.74,45.74,0,0,0,.33,11.35c0,.13,0,.24.07.36.22,1,.52,2.09.81,3.09a34.71,34.71,0,0,1,1,4c1.2,6.85-1.57,11-4.78,15.89-.29.43-.59.88-.88,1.33l-1.1,1.69c-4.23,6.53-8.23,12.7-14.88,17.26A33.05,33.05,0,0,1,243.38,233.88Zm7.87-160.76c-6.56,0-12.77,2.95-16.29,7.75a35.4,35.4,0,0,0-2.84,4.89c-.46.89-.92,1.79-1.42,2.66a68.81,68.81,0,0,1-9,11.6,83.19,83.19,0,0,0-7.58,9.31,57.9,57.9,0,0,0-6.92,15.46c-4.71,15.55-5.44,31.79-5.86,49.88v.61c-.17,7.22-.36,15.41,2.42,22.67,2.18,5.68,6,10.46,9.77,15.08,5.53,6.84,12.42,15.36,21.62,18.51,8.21,2.82,18,1.14,26.23-4.49,6.48-4.45,10.43-10.54,14.6-17l1.1-1.7h0l.88-1.33c3.22-4.87,5.76-8.71,4.64-15.17a36.07,36.07,0,0,0-1-3.88c-.3-1-.6-2.08-.83-3.15,0-.13,0-.26-.08-.4a47.18,47.18,0,0,1-.34-11.58l1.79-33.58a92.51,92.51,0,0,0-.11-16.39c-.4-3.11-1.13-6.22-1.83-9.23a79,79,0,0,1-2-10.92c-.14-1.56-.2-3.17-.25-4.73-.16-4.7-.33-9.56-2.8-13.33a19.25,19.25,0,0,0-5.69-5.28c-6.1-4.06-12.1-6.17-17.82-6.27Z" fill="#231f20"></path><path d="M277.48,208.65c-4.68,7.17-8.71,13.91-15.84,18.81-7.81,5.36-17.83,7.59-26.67,4.56-9.06-3.11-15.69-11.07-21.85-18.68-3.8-4.7-7.66-9.5-9.85-15.21-2.74-7.17-2.63-15.13-2.45-22.86,0-.2,0-.41,0-.61,3.16,6.22,5.36,13,9.68,18.51s10.41,9.4,16.34,13.11c6.1,3.83,12.55,7.76,19.68,7.93,11.38.3,20.94-9,27.35-18.91,2.32-3.59,4.66-7.5,7.32-10.94,0,.12,0,.25.07.37.51,2.38,1.39,4.65,1.8,7.05C284.34,199.05,281.05,203.18,277.48,208.65Z" fill="#231f20"></path><path d="M243.38,233.92a26.61,26.61,0,0,1-8.59-1.39c-9.47-3.26-16.47-11.9-22.09-18.85-3.78-4.68-7.69-9.53-9.93-15.36-2.85-7.45-2.66-15.74-2.49-23.07v-.61a.55.55,0,0,1,.42-.51.54.54,0,0,1,.6.29c1,1.93,1.88,4,2.76,5.89,1.92,4.31,3.92,8.77,6.86,12.53,4.36,5.57,10.38,9.34,16.2,13s12.25,7.67,19.41,7.85c12.61.32,22.27-11.56,26.89-18.67l1.65-2.58c1.79-2.83,3.65-5.75,5.69-8.4a.54.54,0,0,1,.56-.19.55.55,0,0,1,.4.43l.06.34c.23,1,.53,2.09.82,3.09a36.91,36.91,0,0,1,1,4c1.2,6.87-1.58,11.06-4.79,15.92l-.88,1.33-1.1,1.69c-4.23,6.53-8.23,12.7-14.89,17.27A33.05,33.05,0,0,1,243.38,233.92Zm-42.06-57c-.14,6.81-.12,14.34,2.45,21.05,2.18,5.68,6,10.46,9.77,15.07,5.53,6.84,12.42,15.36,21.6,18.51,8.21,2.81,18,1.13,26.19-4.49,6.48-4.45,10.43-10.53,14.6-17l1.1-1.69h0l.88-1.34c3.22-4.85,5.75-8.69,4.63-15.13a36,36,0,0,0-1-3.88c-.23-.78-.46-1.57-.66-2.38-1.74,2.36-3.36,4.91-4.94,7.38-.55.88-1.1,1.74-1.65,2.59-4.74,7.3-14.65,19.5-27.82,19.16-7.45-.18-14.38-4.52-19.95-8-5.9-3.7-12-7.52-16.47-13.24-3-3.87-5.05-8.38-7-12.75C202.51,179.48,201.93,178.17,201.32,176.88Z" fill="#231f20"></path><path d="M213.45,129.71a.5.5,0,0,1-.32-.88s4.28-3.57,9.59-7.74a42.26,42.26,0,0,0,5.9-5.6,33.8,33.8,0,0,1,4.25-4.16c2.34-1.88,4.73-3.47,7-5,1.64-1.09,3.33-2.22,5-3.41q1.49-1.1,2.91-2.1a60.88,60.88,0,0,0,7.7-6.15,42.75,42.75,0,0,1,7.44-5.42c1.42-.89,2.76-1.73,3.9-2.58a.51.51,0,0,1,.7.11.5.5,0,0,1-.1.7c-1.18.87-2.54,1.72-4,2.62a41.35,41.35,0,0,0-7.26,5.28,62.19,62.19,0,0,1-7.83,6.25c-.94.67-1.91,1.36-2.9,2.09-1.63,1.21-3.34,2.35-5,3.44-2.3,1.52-4.67,3.1-7,5a33.4,33.4,0,0,0-4.14,4,44,44,0,0,1-6,5.72c-5.3,4.15-9.52,7.68-9.57,7.72A.46.46,0,0,1,213.45,129.71Z" fill="#d1d3d4"></path><path d="M213.41,157.82a.51.51,0,0,1-.39-.19.49.49,0,0,1,.07-.7l.43-.35c5.95-4.78,9.87-8,16.08-15.48a35.07,35.07,0,0,1,9.34-8.17,91,91,0,0,0,10.61-8c10.74-9.34,23.17-19.61,23.29-19.71a.5.5,0,1,1,.64.77c-.13.1-12.54,10.36-23.27,19.69a89.91,89.91,0,0,1-10.72,8.11,34.49,34.49,0,0,0-9.12,8c-6.27,7.62-10.23,10.81-16.22,15.63l-.43.35A.51.51,0,0,1,213.41,157.82Z" fill="#d1d3d4"></path><path d="M215.87,185.28a.52.52,0,0,1-.29-.09.5.5,0,0,1-.12-.7c.1-.14,9.74-13.71,18.92-21.5,3.19-2.71,5.72-4.71,8-6.46a80.26,80.26,0,0,0,11.47-10.38,73.51,73.51,0,0,1,11-9.48,54.38,54.38,0,0,0,8.21-6.93.49.49,0,0,1,.7,0,.51.51,0,0,1,.05.71,56.16,56.16,0,0,1-8.36,7.07,71,71,0,0,0-10.89,9.34A80.68,80.68,0,0,1,243,157.31c-2.22,1.76-4.75,3.74-7.93,6.44-9.07,7.71-18.65,21.18-18.75,21.32A.5.5,0,0,1,215.87,185.28Z" fill="#d1d3d4"></path><path d="M227.67,198.56a.47.47,0,0,1-.3-.1.5.5,0,0,1-.1-.7,31,31,0,0,1,4.28-4.38c2.73-2.38,7.82-6.81,15.42-12.85,7.33-5.82,25-23.94,25.18-24.12a.5.5,0,1,1,.71.7c-.17.18-17.89,18.34-25.27,24.2-7.58,6-12.65,10.45-15.38,12.82a30.34,30.34,0,0,0-4.14,4.23A.51.51,0,0,1,227.67,198.56Z" fill="#d1d3d4"></path><path d="M243.51,207.44a.54.54,0,0,1-.37-.16.5.5,0,0,1,0-.71c.06-.06,6.24-5.85,12.66-12.2,7.08-7,16-16.45,16.37-17.44a.53.53,0,0,1,.65-.29.5.5,0,0,1,.3.62c-.46,1.31-11.16,12.44-16.61,17.82-6.44,6.37-12.63,12.16-12.69,12.22A.51.51,0,0,1,243.51,207.44Z" fill="#d1d3d4"></path><path d="M270.83,143.4a.51.51,0,0,1-.48-.35c-.44-1.38-.85-2.76-1.26-4.16-1.74-5.92-3.54-12-8.4-18.79-6-8.38-18-33.07-18.16-33.32a.5.5,0,0,1,.23-.67.51.51,0,0,1,.67.23c.12.25,12.1,24.87,18.07,33.17,5,6.9,6.78,13.1,8.55,19.09.41,1.4.82,2.78,1.26,4.14a.5.5,0,0,1-.33.63Z" fill="#d1d3d4"></path><path d="M271.1,174.2a.5.5,0,0,1-.44-.27c-.09-.16-8.56-16.12-14.76-22.37-3.45-3.48-5.19-7.56-6.87-11.52-1.49-3.49-2.9-6.79-5.39-9.7-5.41-6.32-18.23-24.45-18.36-24.63a.5.5,0,1,1,.81-.58c.13.18,12.93,18.28,18.31,24.56,2.59,3,4.09,6.55,5.55,10,1.64,3.87,3.35,7.87,6.66,11.21,6.3,6.35,14.58,21.94,14.93,22.6a.5.5,0,0,1-.21.68A.46.46,0,0,1,271.1,174.2Z" fill="#d1d3d4"></path><path d="M268.33,198.26a.5.5,0,0,1-.47-.35s-1.05-2.89-7.71-10.28-18.09-20.76-21.77-29.3c-3.53-8.18-20.5-37.7-20.67-38a.5.5,0,1,1,.87-.5c.17.3,17.17,29.86,20.72,38.1,3.63,8.41,15.09,21.79,21.59,29,6.86,7.62,7.88,10.52,7.92,10.64a.51.51,0,0,1-.32.63A.45.45,0,0,1,268.33,198.26Z" fill="#d1d3d4"></path><path d="M254.32,206.83a.49.49,0,0,1-.32-.12c-.12-.11-12-10.4-20.35-20.72s-22.29-44.22-22.88-45.66a.5.5,0,1,1,.93-.37c.14.35,14.41,35.17,22.72,45.4s20.11,20.49,20.23,20.59a.51.51,0,0,1,0,.71A.52.52,0,0,1,254.32,206.83Z" fill="#d1d3d4"></path><path d="M236.21,154.24a1.4,1.4,0,0,1,.21-.81c.37-.46,1.1-.26,1.54.13s.79.91,1.34,1.08a32.83,32.83,0,0,1,.32-4.09,2,2,0,0,1,.61-1.4c.72-.51,1.65.15,2.27.78a6.53,6.53,0,0,1,.8-3.62c.71-1,2.34-1.4,3.09-.42a5.72,5.72,0,0,1,6.34-2.66c-.42,1.39-.87,2.76-1.36,4.12.75.48,1.75-.4,2.59-.11a1.52,1.52,0,0,1,.6,2,4.27,4.27,0,0,1-1.66,1.63L250,152.84a3,3,0,0,1,1.4.48,1.12,1.12,0,0,1,.36,1.37,1.39,1.39,0,0,1-.61.51,23.66,23.66,0,0,1-3.47,1.6c.79-.13,1.41.86,1.28,1.7a4.07,4.07,0,0,1-1.28,2.09,11.63,11.63,0,0,1-3.93,3.15C239,165.64,236.07,158.14,236.21,154.24Z" fill="#68e1fd"></path><path d="M242.24,164.54a4.2,4.2,0,0,1-2.47-.82c-2.81-2-4.16-6.78-4.06-9.49h0a1.8,1.8,0,0,1,.32-1.11,1.2,1.2,0,0,1,.84-.45,2,2,0,0,1,1.42.51l.4.39a.93.93,0,0,0,.14.14,31.76,31.76,0,0,1,.29-3.23,2.42,2.42,0,0,1,.82-1.73,1.72,1.72,0,0,1,2.1.15,5.64,5.64,0,0,1,.85-2.87,2.89,2.89,0,0,1,2.24-1.21,2.06,2.06,0,0,1,1.16.31,6.22,6.22,0,0,1,6.58-2.38.59.59,0,0,1,.3.24.58.58,0,0,1,0,.39c-.37,1.2-.76,2.41-1.18,3.61a4.72,4.72,0,0,0,.56-.13,2.47,2.47,0,0,1,1.53-.09,1.58,1.58,0,0,1,.92.89,2.35,2.35,0,0,1,0,1.82,4.62,4.62,0,0,1-1.84,1.83l-2,1.33a2.1,2.1,0,0,1,.5.29,1.63,1.63,0,0,1,.49,2,2.1,2.1,0,0,1-.8.69q-1.2.66-2.46,1.2a2.18,2.18,0,0,1,.52,1.73,4.57,4.57,0,0,1-1.41,2.36,12.29,12.29,0,0,1-4.11,3.28A4.55,4.55,0,0,1,242.24,164.54ZM237,153.66h0a.2.2,0,0,0-.16.07,1,1,0,0,0-.1.52h0c-.11,2.81,1.36,7.05,3.63,8.64a3.19,3.19,0,0,0,3.19.38,11.6,11.6,0,0,0,3.76-3,3.73,3.73,0,0,0,1.15-1.83,1.2,1.2,0,0,0-.32-1,.49.49,0,0,0-.4-.16.5.5,0,0,1-.25-1,23.83,23.83,0,0,0,3.41-1.56,1.25,1.25,0,0,0,.42-.33.65.65,0,0,0-.24-.72,2.5,2.5,0,0,0-1.17-.39.5.5,0,0,1-.19-.91l2.93-1.94a3.7,3.7,0,0,0,1.48-1.42,1.33,1.33,0,0,0,0-1,.57.57,0,0,0-.33-.35,1.78,1.78,0,0,0-.93.11,2.05,2.05,0,0,1-1.76,0,.5.5,0,0,1-.2-.59c.42-1.18.82-2.38,1.19-3.58a5.25,5.25,0,0,0-5.27,2.54.49.49,0,0,1-.4.24.5.5,0,0,1-.43-.19,1,1,0,0,0-.84-.37,1.91,1.91,0,0,0-1.44.78,6,6,0,0,0-.71,3.34.52.52,0,0,1-.32.46.5.5,0,0,1-.54-.12c-.25-.26-1.13-1.07-1.62-.72a1.67,1.67,0,0,0-.41,1.06,31.86,31.86,0,0,0-.31,4,.51.51,0,0,1-.2.4.53.53,0,0,1-.44.08,3,3,0,0,1-1.19-.85c-.11-.12-.22-.23-.34-.34A1.09,1.09,0,0,0,237,153.66Zm-.8.58h0Z" fill="#231f20"></path><path d="M241.18,163.16l-.11,0a.49.49,0,0,1-.38-.59c.07-.33,1.85-8.14,6.43-12.81a.5.5,0,0,1,.72.7c-4.38,4.46-6.16,12.25-6.17,12.33A.51.51,0,0,1,241.18,163.16Z" fill="#231f20"></path><path d="M244.88,159.88l.47,2.32a15.57,15.57,0,0,1,6.17-3.78,1,1,0,0,1,.67,0c.74.28.18,1.6.67,2.25l2.42-.59a2.43,2.43,0,0,1,1.78,0c.53.31.68,1.28.13,1.54a14.61,14.61,0,0,1,4.28,1.44c.77.4,1.63,1.15,1.37,2a1.63,1.63,0,0,1-1.5,1,6,6,0,0,0-1.85.2,1.17,1.17,0,0,0-.69,1.55c.16.26.46.4.64.64a1.23,1.23,0,0,1-.58,1.68,2.7,2.7,0,0,1-1.9,0c-1.71-.47-3.59-1.28-5.14-.38a2.6,2.6,0,0,1,.81,1.13,1,1,0,0,1-.47,1.19,1.25,1.25,0,0,1-1-.23c-1.2-.65-2.39-1.31-3.58-2a.76.76,0,0,0-.59-.15c-.27.09-.36.44-.5.7-1.67,3-9.79-3.21-5.32-7.66C241.52,162.32,244.92,160.09,244.88,159.88Z" fill="#68e1fd"></path><path d="M251.94,172.53a2,2,0,0,1-1-.33c-1.2-.65-2.4-1.32-3.59-2a.83.83,0,0,0-.21-.1s0,.15-.08.23l-.12.23a2.06,2.06,0,0,1-2.11,1c-2-.14-4.34-2.12-5.15-4.3a4.54,4.54,0,0,1,1.15-5c.16-.15.63-.48,1.51-1.1.7-.49,1.85-1.3,2.11-1.54a.47.47,0,0,1,.34-.27.5.5,0,0,1,.59.39l.29,1.44a16,16,0,0,1,5.71-3.27,1.48,1.48,0,0,1,1,0c.72.28.74,1,.75,1.59a4.56,4.56,0,0,0,0,.54l2-.49a2.83,2.83,0,0,1,2.15.08A1.57,1.57,0,0,1,258,161a1.49,1.49,0,0,1,0,.21,15.27,15.27,0,0,1,3.69,1.35c1,.51,2,1.47,1.61,2.59a2.11,2.11,0,0,1-1.93,1.32l-.6,0a3,3,0,0,0-1.1.15.87.87,0,0,0-.47.52.32.32,0,0,0,0,.29,1.64,1.64,0,0,0,.23.23,2.08,2.08,0,0,1,.4.39,1.45,1.45,0,0,1,.2,1.21,1.91,1.91,0,0,1-1,1.21,3.2,3.2,0,0,1-2.26,0l-.77-.22a6.57,6.57,0,0,0-3.37-.46,2.32,2.32,0,0,1,.43.81,1.46,1.46,0,0,1-.78,1.8A1.15,1.15,0,0,1,251.94,172.53Zm-4.81-3.43a1.56,1.56,0,0,1,.71.23c1.18.68,2.37,1.34,3.57,2,.15.08.44.24.59.19s.23-.34.15-.58a2.4,2.4,0,0,0-.68-.92.5.5,0,0,1-.14-.42.52.52,0,0,1,.24-.37c1.51-.87,3.24-.34,4.77.12l.75.22a2.33,2.33,0,0,0,1.56.05.89.89,0,0,0,.43-.55.44.44,0,0,0-.05-.38.89.89,0,0,0-.22-.21,2,2,0,0,1-.43-.47,1.31,1.31,0,0,1-.12-1.13,1.89,1.89,0,0,1,1-1.14,4,4,0,0,1,1.46-.22l.53,0c.42,0,.95-.22,1.07-.6.17-.58-.62-1.17-1.12-1.43a14.55,14.55,0,0,0-4.14-1.39.51.51,0,0,1-.41-.42.5.5,0,0,1,.28-.52s.06-.12.07-.16a.62.62,0,0,0-.23-.49,2,2,0,0,0-1.41,0l-2.42.59a.48.48,0,0,1-.51-.18,2.38,2.38,0,0,1-.35-1.41c0-.27,0-.64-.11-.67s-.27,0-.34.06a15,15,0,0,0-6,3.66.52.52,0,0,1-.49.12.5.5,0,0,1-.35-.38l-.3-1.46c-.37.27-.9.65-1.66,1.18-.56.39-1.26.88-1.37,1a3.51,3.51,0,0,0-.92,3.94,6,6,0,0,0,4.29,3.66,1.1,1.1,0,0,0,1.16-.53c0-.05.05-.11.08-.17a1.25,1.25,0,0,1,.71-.76A.72.72,0,0,1,247.13,169.1Z" fill="#231f20"></path><path d="M242.21,167.56a.5.5,0,0,1-.23-.94c.34-.19,8.54-4.46,14.64-1.7a.51.51,0,0,1,.25.67.49.49,0,0,1-.66.24c-5.66-2.56-13.68,1.63-13.76,1.67A.53.53,0,0,1,242.21,167.56Z" fill="#231f20"></path><path d="M240.12,158.23a2.85,2.85,0,0,0-1-1.09,1,1,0,0,0-1.29.36c-.21.45-.09,1.18-.56,1.27a.82.82,0,0,1-.55-.23A8.34,8.34,0,0,0,233,157a.86.86,0,0,0-.61.06c-.65.4,0,1.9-.74,2a7.91,7.91,0,0,0-4.58-.77,1.18,1.18,0,0,0-1,.53c-.15.32,0,.73-.22,1s-.67.35-1.06.35a9.19,9.19,0,0,0-6.14,2.42,1.15,1.15,0,0,0-.34.45,1,1,0,0,0,.68,1.11c1.07.4,2.53-.16,3.21.79s-.15,2.33.44,3.28a2.11,2.11,0,0,0,2.31.57,3.73,3.73,0,0,1,2.48-.11c0,1,.13,2.17,1,2.6s1.77-.19,2.57-.69,1.94-.83,2.52-.09c.19.25.27.56.45.82.48.68,1.44.65,2.24.56a16.21,16.21,0,0,0,5.29-1.18c2.28-1.09,3.46-2.57,2.58-4.93A40.9,40.9,0,0,0,240.12,158.23Z" fill="#68e1fd"></path><path d="M235.53,172.44a2.26,2.26,0,0,1-1.95-.83,3.42,3.42,0,0,1-.26-.46,1.69,1.69,0,0,0-.18-.33c-.39-.51-1.35-.11-1.86.21-.87.54-2,1.24-3.05.71S227,169.84,227,169a3.6,3.6,0,0,0-1.55.17l-.33.07c-1.31.3-2.35,0-2.85-.79a3.07,3.07,0,0,1-.27-1.92,2.15,2.15,0,0,0-.15-1.33c-.26-.36-.72-.39-1.45-.4a4.63,4.63,0,0,1-1.52-.22,1.44,1.44,0,0,1-1-1.74,1.6,1.6,0,0,1,.47-.64,9.68,9.68,0,0,1,6.48-2.56c.19,0,.56,0,.63-.12a.73.73,0,0,0,.06-.31,1.7,1.7,0,0,1,.14-.66,1.65,1.65,0,0,1,1.36-.81,8.48,8.48,0,0,1,4.55.66v-.38a1.69,1.69,0,0,1,.57-1.48,1.41,1.41,0,0,1,1-.12,8.77,8.77,0,0,1,3.87,1.68l.12.09c0-.08,0-.2.06-.28a2.38,2.38,0,0,1,.17-.66,1.27,1.27,0,0,1,.74-.66,1.59,1.59,0,0,1,1.23.06,3.26,3.26,0,0,1,1.23,1.27h0a40.45,40.45,0,0,1,4,7.65c.9,2.4,0,4.22-2.84,5.55a16.78,16.78,0,0,1-5.44,1.23A7,7,0,0,1,235.53,172.44Zm-2.93-2.86a1.6,1.6,0,0,1,1.33.63,2.32,2.32,0,0,1,.3.52c.05.1.1.21.16.31.33.45,1.09.44,1.79.36a15.75,15.75,0,0,0,5.12-1.15c2.32-1.09,3-2.42,2.33-4.29a39.32,39.32,0,0,0-3.93-7.46h0a2.39,2.39,0,0,0-.83-.91.63.63,0,0,0-.45,0,.3.3,0,0,0-.17.14,2.46,2.46,0,0,0-.1.41c-.06.38-.17,1-.82,1.14a1.2,1.2,0,0,1-.94-.32,7.87,7.87,0,0,0-3.44-1.5c-.2,0-.25,0-.27,0s-.09.48-.1.66c0,.49,0,1.31-.82,1.45a.57.57,0,0,1-.31,0,7.4,7.4,0,0,0-4.29-.72c-.33,0-.53.13-.59.24a1.19,1.19,0,0,0,0,.32,1.33,1.33,0,0,1-1.68,1.35h0A8.71,8.71,0,0,0,219,163a.78.78,0,0,0-.21.25c-.05.13.15.38.39.47a3.66,3.66,0,0,0,1.19.15,2.48,2.48,0,0,1,2.24.82,2.85,2.85,0,0,1,.33,2,2.41,2.41,0,0,0,.13,1.32c.38.6,1.46.41,1.78.34l.31-.08a3.61,3.61,0,0,1,2.51,0,.5.5,0,0,1,.27.45c0,.77.08,1.84.7,2.15s1.33-.2,2-.63A3.74,3.74,0,0,1,232.6,169.58Z" fill="#231f20"></path><path d="M244.18,168.88a.36.36,0,0,1-.14,0,.5.5,0,0,1-.32-.28c-.84-.87-9.11-5.72-17.65-4.66a.5.5,0,0,1-.13-1c9-1.13,17.8,4.12,18.57,5a.56.56,0,0,1,.15.56A.49.49,0,0,1,244.18,168.88Z" fill="#231f20"></path><path d="M133.93,155.53c4.09-.5,8.23.5,12.35.32,6.2-.26,11.94-3.14,17.89-4.9s13-2.21,17.77,1.74c9.46,7.81,2.39,24.66,9.69,34.52,1.3,1.76,3.07,3.32,3.47,5.46.35,1.85-.4,3.69-.72,5.54-1.28,7.38,4.27,14.73,2.77,22.06-1.62,7.93-10.47,11.93-18.36,13.72a101.05,101.05,0,0,1-10.22,1.77,10.1,10.1,0,0,1-4.38-.14c-1.75-.58-3.06-2-4.56-3.09-8.07-5.83-21.41-1.46-27.77-9.11-2.57-3.09-3.15-7.33-4.68-11-3-7.27-9.64-12.51-12.9-19.67C107.55,177.89,117,157.61,133.93,155.53Z" fill="#68e1fd"></path><path d="M166.35,236.43a7.32,7.32,0,0,1-2.32-.33,10.78,10.78,0,0,1-3.43-2.18c-.42-.34-.83-.68-1.26-1-3.58-2.59-8.36-3.12-13-3.63-5.56-.62-11.31-1.26-14.9-5.56-1.8-2.18-2.66-4.89-3.49-7.52-.38-1.22-.78-2.48-1.26-3.66-1.53-3.69-4.07-6.94-6.54-10.08a48.07,48.07,0,0,1-6.35-9.57c-3.43-7.53-2.84-17.06,1.54-24.87,4.1-7.32,10.84-12.06,18.5-13a34.28,34.28,0,0,1,7,.09,41.94,41.94,0,0,0,5.37.22c4.27-.18,8.42-1.66,12.43-3.09,1.74-.62,3.54-1.26,5.33-1.79,4.41-1.3,12.63-2.8,18.24,1.83,5.24,4.33,5.58,11.4,5.9,18.24.29,5.86.58,11.92,3.88,16.38.32.44.67.86,1,1.29a7.62,7.62,0,0,1,2.14,8.56c-.13.51-.25,1-.34,1.53-.61,3.52.42,7.15,1.41,10.66,1.06,3.72,2.15,7.57,1.36,11.41-1.83,9-12.53,12.69-18.73,14.1a102.77,102.77,0,0,1-10.28,1.79A19.76,19.76,0,0,1,166.35,236.43ZM134,156c-7.34.9-13.8,5.46-17.75,12.5-4.22,7.53-4.8,16.72-1.5,24a48.16,48.16,0,0,0,6.23,9.37c2.51,3.19,5.1,6.49,6.67,10.31.5,1.22.91,2.5,1.3,3.74.83,2.65,1.62,5.16,3.3,7.18,3.33,4,8.63,4.58,14.24,5.21,4.74.52,9.65,1.07,13.44,3.81.45.33.88.68,1.31,1a10.15,10.15,0,0,0,3.12,2,9.65,9.65,0,0,0,4.16.12,103,103,0,0,0,10.17-1.77c6-1.36,16.26-4.89,18-13.33.74-3.6-.27-7.16-1.34-10.94-1-3.62-2.08-7.36-1.43-11.1.09-.53.22-1.06.34-1.59a9,9,0,0,0,.38-3.77,9.1,9.1,0,0,0-2.31-3.92c-.37-.44-.73-.88-1.07-1.34-3.48-4.7-3.78-10.91-4.06-16.93-.34-6.92-.65-13.46-5.55-17.51-5.25-4.33-13.1-2.89-17.31-1.64-1.77.52-3.55,1.16-5.28,1.77-4.09,1.46-8.31,3-12.72,3.15a43.61,43.61,0,0,1-5.5-.22A33.09,33.09,0,0,0,134,156Zm-.06-.5h0Z" fill="#231f20"></path><path d="M161.08,229.62a12,12,0,0,1-7.65-2.43,17.77,17.77,0,0,1-3-3.44l-.67-.9a33.58,33.58,0,0,0-9-8.21.5.5,0,0,1,.53-.85,34.78,34.78,0,0,1,9.24,8.45c.22.31.45.61.68.92a17,17,0,0,0,2.82,3.26,11.24,11.24,0,0,0,7.59,2.19,34.78,34.78,0,0,0,8.14-1.63l4.59-1.32a.5.5,0,1,1,.27,1l-4.59,1.31a35.5,35.5,0,0,1-8.37,1.67Z" fill="#231f20"></path><path d="M140.31,159.25a.5.5,0,0,1-.5-.48,2.27,2.27,0,0,1,2-2.14,5.82,5.82,0,0,1,2.46.25l.19.05a27.14,27.14,0,0,0,14.79-.52c.56-.18,1.13-.39,1.7-.59,2.32-.83,4.72-1.69,7.21-1.31a14.75,14.75,0,0,1,4.54,1.79l3.47,1.85a.5.5,0,0,1,.21.67.51.51,0,0,1-.68.21l-3.47-1.85A13.76,13.76,0,0,0,168,155.5c-2.23-.35-4.51.47-6.71,1.26-.58.21-1.16.42-1.73.6a28.11,28.11,0,0,1-15.35.54l-.19-.05a5,5,0,0,0-2-.24c-.58.1-1.18.58-1.16,1.12a.5.5,0,0,1-.48.52Z" fill="#231f20"></path><path d="M125.39,119.86c-.39-.21-6.56-.92-4,4.91,0,0-4.77,3.55-2.16,6.56,0,0-2.7,3.54-.84,5.63s2.93,2.38,2.93,2.38-1.47,3.88,1.3,4.16,4.65-2.25,4.65-2.25,2.18,2.46,3.29.37-.08-5.69-.08-5.69,2-1,1.81-4.52c0,0,2.66-.27,3.19-4.15,0,0,2.36,2.86,4.88.23,0,0,1.8,4.46,3.72,3,0,0,2,2.59,4.29-.43s5.49-5.59,1.2-8.37c0,0,.92-2.28-2.8-3.25,0,0-.22-3.86-4.25-2.49,0,0-1.66-3.82-4.26-2,0,0-3.09-2.89-5.09-.2,0,0-5.49-2.69-6.64,1.71Z" fill="#68e1fd"></path><path d="M123.05,144a4,4,0,0,1-.48,0,2.19,2.19,0,0,1-1.75-1,4.48,4.48,0,0,1-.11-3.38,10.57,10.57,0,0,1-2.69-2.32c-1.78-2-.07-5,.59-5.94A3.35,3.35,0,0,1,118,129c.21-2,2.06-3.72,2.81-4.35-.79-2-.67-3.48.35-4.43a5.14,5.14,0,0,1,3.89-.91l1-3.94a3.6,3.6,0,0,1,2-2.53c1.8-.83,4.13,0,5,.34a2.91,2.91,0,0,1,2-1,5,5,0,0,1,3.3,1.21,2.6,2.6,0,0,1,2-.27,4.65,4.65,0,0,1,2.46,2.3,3.52,3.52,0,0,1,3,.3,3.66,3.66,0,0,1,1.42,2.4A4.15,4.15,0,0,1,149.9,120a2.5,2.5,0,0,1,.23,1.53,4.22,4.22,0,0,1,2,2.71c.27,1.69-1,3.25-2.35,4.9-.34.42-.69.84-1,1.28a3.51,3.51,0,0,1-2.7,1.66,3.15,3.15,0,0,1-2.08-.89,1.74,1.74,0,0,1-1.17.08c-1.21-.34-2.17-2-2.63-2.91a3.28,3.28,0,0,1-2.21.78,3.94,3.94,0,0,1-2.18-.86,4.54,4.54,0,0,1-3,3.56,5.29,5.29,0,0,1-1.74,4.33c.28,1,.94,3.85-.06,5.72a1.88,1.88,0,0,1-1.43,1.1,3.14,3.14,0,0,1-2.27-1A6.08,6.08,0,0,1,123.05,144Zm1.15-23.81a3.51,3.51,0,0,0-2.48.79c-.65.7-.6,1.9.12,3.56a.49.49,0,0,1-.15.6s-2.51,1.9-2.73,3.91a2.44,2.44,0,0,0,.65,1.92.51.51,0,0,1,0,.63s-2.43,3.25-.86,5a7.89,7.89,0,0,0,2.7,2.25.5.5,0,0,1,.32.65c-.2.54-.62,2.13-.12,2.95a1.25,1.25,0,0,0,1,.54c2.45.24,4.18-2,4.2-2.06a.48.48,0,0,1,.38-.2.51.51,0,0,1,.4.17c.26.29,1.15,1.11,1.8,1,.1,0,.39-.05.67-.57,1-1.89-.1-5.27-.12-5.3a.51.51,0,0,1,.25-.6c.06,0,1.67-1,1.54-4.06a.5.5,0,0,1,.45-.52c.09,0,2.28-.31,2.75-3.72a.48.48,0,0,1,.35-.41.51.51,0,0,1,.53.16A3.39,3.39,0,0,0,138,128.1a2.63,2.63,0,0,0,2-1,.49.49,0,0,1,.82.16c.42,1,1.4,2.73,2.27,3a.73.73,0,0,0,.69-.16.49.49,0,0,1,.69.1,2.38,2.38,0,0,0,1.58.83h0a2.6,2.6,0,0,0,1.9-1.26c.34-.45.69-.89,1-1.31,1.21-1.48,2.34-2.87,2.15-4.12a3.58,3.58,0,0,0-1.87-2.22.51.51,0,0,1-.19-.61,1.44,1.44,0,0,0-.1-1.12,3.48,3.48,0,0,0-2.35-1.45.52.52,0,0,1-.38-.46,2.33,2.33,0,0,0-3.58-2,.5.5,0,0,1-.62-.28s-.8-1.8-2-2.14a1.7,1.7,0,0,0-1.5.34.48.48,0,0,1-.62,0,4.45,4.45,0,0,0-2.84-1.21,2.08,2.08,0,0,0-1.5.94.51.51,0,0,1-.62.15s-2.75-1.32-4.53-.49a2.59,2.59,0,0,0-1.41,1.87l-1.15,4.4a.5.5,0,0,1-.69.33A4.09,4.09,0,0,0,124.2,120.22Z" fill="#231f20"></path><path d="M127.12,137.75s5.11-1.21,6.81,1,7.16,10.39,7.16,10.39,6.27-4,7.27-4.64c0,0-3.52-7-3.63-8.88s2.18-9.11,2.18-9.11l-2-1.17s-2.92,8.65-3.44,7.59-.07-8.2-.07-8.2l-3.58,0s1.08,7.63.29,7.73-4.16-6.51-4.16-6.51l-3.79,3.72s6.14,4.44,4.75,5.06-7.19-.49-7.19-.49Z" fill="#fff"></path><path d="M141.09,149.64a.51.51,0,0,1-.42-.23c0-.08-5.46-8.2-7.13-10.36-1.24-1.59-5-1.12-6.31-.81a.49.49,0,0,1-.45-.12.52.52,0,0,1-.16-.44l.55-3.55a.5.5,0,0,1,.21-.33.52.52,0,0,1,.38-.09c2.1.4,5.69.89,6.77.57-.3-.72-2.59-2.71-4.71-4.24a.49.49,0,0,1-.06-.76l3.79-3.73a.52.52,0,0,1,.43-.14.5.5,0,0,1,.36.27,44.82,44.82,0,0,0,3.49,6,43,43,0,0,0-.56-6.88.51.51,0,0,1,.12-.4.46.46,0,0,1,.38-.17l3.59,0a.48.48,0,0,1,.36.16.51.51,0,0,1,.13.37,62.88,62.88,0,0,0-.11,7.2,63.29,63.29,0,0,0,2.64-6.78.54.54,0,0,1,.3-.31.5.5,0,0,1,.43,0l2,1.16a.5.5,0,0,1,.23.59c-.63,2-2.24,7.48-2.15,8.93s2.61,6.76,3.58,8.69a.49.49,0,0,1-.19.65c-1,.61-7.2,4.59-7.26,4.63A.56.56,0,0,1,141.09,149.64Zm-11-12.72c1.57,0,3.32.31,4.26,1.52,1.5,1.93,5.77,8.31,6.9,10,1.28-.81,5.08-3.25,6.48-4.13-.8-1.63-3.38-7-3.48-8.67s1.57-7.27,2.08-8.91l-1.17-.67c-2.53,7.38-3.23,7.43-3.57,7.45a.64.64,0,0,1-.6-.37c-.48-1-.25-6-.15-7.92l-2.48,0c.37,2.69.8,6.71.22,7.46a.69.69,0,0,1-.44.27c-.34,0-1.1.14-4.36-6.18l-2.88,2.84c2,1.47,4.8,3.76,4.68,4.9a.82.82,0,0,1-.49.67c-1.28.57-5.36-.07-7-.36l-.36,2.34A14.05,14.05,0,0,1,130.07,136.92Z" fill="#231f20"></path><path d="M134.64,123.69c-1.53,6.6-5.94,6.95-5.94,6.95" fill="#68e1fd"></path><path d="M128.7,131.14a.5.5,0,0,1,0-1c.16,0,4.07-.43,5.5-6.57a.49.49,0,0,1,.6-.37.5.5,0,0,1,.37.6c-1.6,6.88-6.2,7.32-6.39,7.34Z" fill="#231f20"></path><path d="M127.57,132s3.89.74,1.18,4.53c0,0,1.63,1.56-.74,3s-3.95.47-3.95.47" fill="#68e1fd"></path><path d="M125.46,140.82a3.41,3.41,0,0,1-1.66-.38.5.5,0,0,1,.52-.86c.05,0,1.37.76,3.43-.47.44-.26,1-.68,1-1.2a1.38,1.38,0,0,0-.39-1,.5.5,0,0,1-.06-.65c.53-.74,1.09-1.79.77-2.59s-1.62-1.16-1.64-1.16a.51.51,0,0,1-.39-.59.5.5,0,0,1,.58-.4A3.42,3.42,0,0,1,130,133.3a3.54,3.54,0,0,1-.67,3.24,2.19,2.19,0,0,1,.41,1.47,2.71,2.71,0,0,1-1.51,2A5.47,5.47,0,0,1,125.46,140.82Z" fill="#231f20"></path><path d="M135.92,123.63a2.38,2.38,0,0,0,1.83,2.24c.38,0,3.27-.35,3-1.09a2.6,2.6,0,0,0,4.93-.28c-.16,1,1,1.82,2,1.65a3.3,3.3,0,0,0,2.19-1.91,1.37,1.37,0,0,0,.08-1.44" fill="#68e1fd"></path><path d="M143.15,126.92a3.2,3.2,0,0,1-2.47-1.22,7.49,7.49,0,0,1-3,.67,2.87,2.87,0,0,1-2.27-2.69.49.49,0,0,1,.45-.54.5.5,0,0,1,.55.44c.08.8.59,1.71,1.39,1.8a7,7,0,0,0,2.42-.56.49.49,0,0,1,.31-.5.5.5,0,0,1,.65.28h0a2.21,2.21,0,0,0,2.07,1.32,2.18,2.18,0,0,0,1.9-1.55.52.52,0,0,1,.59-.36.51.51,0,0,1,.39.57.82.82,0,0,0,.27.69,1.38,1.38,0,0,0,1.14.39,2.93,2.93,0,0,0,1.82-1.65c.21-.41.26-.75.14-.91a.5.5,0,1,1,.79-.61,1.81,1.81,0,0,1,0,2,3.87,3.87,0,0,1-2.55,2.17,2.39,2.39,0,0,1-2-.65l-.19-.21a3.16,3.16,0,0,1-2.21,1.14Z" fill="#231f20"></path><path d="M180.33,95.39c-.19-.47-5.08-5.61-7.1,1.37,0,0-6.78-.37-6.69,4.17,0,0-5,1.13-4.85,4.32s.82,4.24.82,4.24-4.13,2.32-1.91,4.59,5.73,1.43,5.73,1.43.1,3.75,2.61,2.73,4.09-5,4.09-5,2.47.54,4.9-2.63c0,0,2.52,1.7,5.83-1.3,0,0,0,4.23,4.11,3.76,0,0-1.69,5.23,1,5.38,0,0-.12,3.74,4.08,2.75s8.9-.87,7.17-6.45c0,0,2.48-1.33-.07-4.89,0,0,2.63-3.55-1.9-5.29,0,0,1.34-4.57-2.27-4.89,0,0-.59-4.78-4.3-3.89,0,0-2.86-6.38-7.08-3.36Z" fill="#68e1fd"></path><path d="M191.69,121.82a3.24,3.24,0,0,1-2.11-.68,3.53,3.53,0,0,1-1.15-2.31,1.92,1.92,0,0,1-1.09-.76c-.82-1.2-.43-3.38-.14-4.51a3.74,3.74,0,0,1-2.55-.92,4.37,4.37,0,0,1-1.28-2.41c-2.47,1.84-4.47,1.32-5.31,1-1.93,2.33-3.88,2.57-4.71,2.54-.47,1-2,4.06-4.22,5a2,2,0,0,1-2-.08,3.62,3.62,0,0,1-1.26-2.53,6.65,6.65,0,0,1-5.63-1.66,2.42,2.42,0,0,1-.78-2.1c.2-1.4,1.67-2.54,2.4-3a11.89,11.89,0,0,1-.68-4c-.11-3,3.63-4.37,4.86-4.72A3.73,3.73,0,0,1,167.21,98c1.65-1.6,4.56-1.74,5.65-1.74.75-2.33,1.93-3.55,3.51-3.63a5.82,5.82,0,0,1,4,2.07L184.25,92a4,4,0,0,1,3.52-.77c2.18.59,3.64,3,4.13,4a3.3,3.3,0,0,1,2.46.53,5.74,5.74,0,0,1,2,3.49,2.88,2.88,0,0,1,2,1.21,5.29,5.29,0,0,1,.45,3.82,4,4,0,0,1,2.45,2.45,4.13,4.13,0,0,1-.53,3.13,4.63,4.63,0,0,1,1,3.59,2.72,2.72,0,0,1-.92,1.5,4.82,4.82,0,0,1-.2,3.84c-1,1.64-3.23,2.08-5.6,2.53-.61.12-1.23.24-1.83.38A6.2,6.2,0,0,1,191.69,121.82Zm-3.82-9.3a.51.51,0,0,1,.39.19.49.49,0,0,1,.08.47c-.28.86-.85,3.33-.17,4.32a.91.91,0,0,0,.77.4.49.49,0,0,1,.47.51,2.73,2.73,0,0,0,.81,2,3.07,3.07,0,0,0,2.66.3c.62-.15,1.25-.27,1.87-.39,2.15-.41,4.17-.8,4.93-2.07a4.19,4.19,0,0,0,0-3.37.51.51,0,0,1,.24-.59,1.73,1.73,0,0,0,.77-1.1,4.1,4.1,0,0,0-1-3.05.51.51,0,0,1,0-.59A2.75,2.75,0,0,0,198,105a.49.49,0,0,1-.3-.6s.62-2.2-.22-3.42a2,2,0,0,0-1.61-.83.5.5,0,0,1-.46-.43,5.17,5.17,0,0,0-1.63-3.18,2.48,2.48,0,0,0-2.06-.3.49.49,0,0,1-.57-.28s-1.46-3.19-3.66-3.78a3.08,3.08,0,0,0-2.67.62l-4.21,3a.51.51,0,0,1-.75-.2c-.2-.34-2-2.16-3.6-2-1.11.14-2,1.24-2.56,3.26a.49.49,0,0,1-.51.36s-3.61-.17-5.3,1.46a2.83,2.83,0,0,0-.86,2.2.49.49,0,0,1-.39.5s-4.55,1.08-4.46,3.82c.1,2.94.73,4,.74,4a.51.51,0,0,1,.06.4.46.46,0,0,1-.23.31c-.59.33-2.14,1.43-2.3,2.55a1.47,1.47,0,0,0,.5,1.26c2,2,5.22,1.3,5.25,1.29a.52.52,0,0,1,.42.09.48.48,0,0,1,.2.38c0,.49.2,1.86.85,2.29a1.09,1.09,0,0,0,1.07,0c2.28-.92,3.8-4.72,3.82-4.76a.48.48,0,0,1,.57-.3c.08,0,2.21.39,4.39-2.46a.5.5,0,0,1,.68-.11c.08.06,2.26,1.43,5.21-1.25a.49.49,0,0,1,.54-.09.51.51,0,0,1,.3.46,4,4,0,0,0,1.06,2.64,3.05,3.05,0,0,0,2.49.63Z" fill="#231f20"></path><path d="M168.75,112.33s5.37,2.68,5.25,5.86-1.33,14.34-1.33,14.34,8.43,1.07,9.76,1.26c0,0,2-8.73,3.31-10.44s8.58-6.4,8.58-6.4l-.94-2.52s-8.89,5.44-8.56,4.14,5.93-7.23,5.93-7.23l-3.11-2.67s-4.63,7.49-5.4,7,1.12-8.75,1.12-8.75l-6,.5s2.13,8.37.46,7.91-5.95-5.69-5.95-5.69Z" fill="#fff"></path><path d="M182.43,134.29h-.07c-1.31-.19-9.67-1.25-9.76-1.27a.49.49,0,0,1-.43-.55c0-.11,1.21-11.18,1.33-14.3.1-2.82-4.92-5.36-5-5.39a.49.49,0,0,1-.27-.38.51.51,0,0,1,.16-.44l3.08-2.71a.5.5,0,0,1,.37-.12.48.48,0,0,1,.35.18c1.58,1.93,4.45,5.07,5.61,5.5.3-.68-.14-3.91-1-7.28a.5.5,0,0,1,.45-.62l6-.5a.52.52,0,0,1,.42.17.54.54,0,0,1,.11.44,45.94,45.94,0,0,0-1.3,8,47.69,47.69,0,0,0,4.67-6.57.47.47,0,0,1,.35-.23.52.52,0,0,1,.4.11l3.11,2.67a.51.51,0,0,1,.17.35.5.5,0,0,1-.13.37,67.11,67.11,0,0,0-5.51,6.43,68.15,68.15,0,0,0,7.51-4.1.48.48,0,0,1,.42-.05.51.51,0,0,1,.31.3l.94,2.52a.51.51,0,0,1-.2.6c-2,1.28-7.46,4.92-8.44,6.26s-2.67,7.86-3.23,10.26A.51.51,0,0,1,182.43,134.29Zm-9.21-2.2c1.64.21,7,.89,8.83,1.14.44-1.83,2.14-8.62,3.29-10.18s6.89-5.34,8.37-6.3l-.59-1.58c-7.63,4.64-8.28,4.17-8.56,4a.64.64,0,0,1-.23-.69c.31-1.23,4.26-5.53,5.7-7.07l-2.27-1.95c-1.43,2.28-4.19,6.49-5.27,6.73a.63.63,0,0,1-.52-.08c-.28-.18-1-.66.75-8.61l-4.78.39c.58,2.38,1.5,6.81.55,7.73a.84.84,0,0,1-.84.21c-1.55-.43-4.78-4.16-5.87-5.46l-2.16,1.9c1.48.86,5,3.18,4.88,6S173.45,129.88,173.22,132.09Z" fill="#231f20"></path><path d="M185.64,105.51c-6.18,4.66-10.3,1.74-10.3,1.74" fill="#68e1fd"></path><path d="M178.81,108.67a6.82,6.82,0,0,1-3.76-1,.51.51,0,0,1-.11-.7.5.5,0,0,1,.69-.11c.16.11,3.92,2.63,9.71-1.74a.5.5,0,1,1,.6.8A11.87,11.87,0,0,1,178.81,108.67Z" fill="#231f20"></path><path d="M173.34,107.64s2.86,3.5-2.29,4.84c0,0,.29,2.56-2.82,2.07s-3.81-2.48-3.81-2.48" fill="#68e1fd"></path><path d="M169,115.11a4.89,4.89,0,0,1-.83-.07c-3.37-.54-4.17-2.71-4.2-2.8a.5.5,0,1,1,.94-.33c0,.06.67,1.71,3.42,2.14a2.11,2.11,0,0,0,1.84-.31,1.62,1.62,0,0,0,.4-1.21.51.51,0,0,1,.38-.53c1.48-.39,2.36-1,2.62-1.76A2.82,2.82,0,0,0,173,108a.5.5,0,0,1,.78-.63,3.78,3.78,0,0,1,.77,3.22c-.34,1-1.33,1.82-2.95,2.31a2.42,2.42,0,0,1-.7,1.6A2.63,2.63,0,0,1,169,115.11Z" fill="#231f20"></path><path d="M186.79,106.4a2.72,2.72,0,0,0,0,3.3c.3.32,3.12,2.08,3.4,1.22a3,3,0,0,0,4.52,3.36,1.9,1.9,0,0,0,.54,2.89,3.78,3.78,0,0,0,3.31-.07c.54-.23,1.11-.62,1.13-1.21" fill="#68e1fd"></path><path d="M196.63,118a3.29,3.29,0,0,1-1.66-.43,2.64,2.64,0,0,1-1.25-2,2.67,2.67,0,0,1,0-.4,3.44,3.44,0,0,1-4.19-3.58,8.25,8.25,0,0,1-3.13-1.6,3.18,3.18,0,0,1,0-3.92.5.5,0,0,1,.69-.14.51.51,0,0,1,.14.7,2.24,2.24,0,0,0-.09,2.67,7.41,7.41,0,0,0,2.6,1.31h0a.5.5,0,0,1,.9.42h0a2.47,2.47,0,0,0,3.76,2.79.5.5,0,0,1,.61.78,1,1,0,0,0-.29.87,1.64,1.64,0,0,0,.75,1.22,3.28,3.28,0,0,0,2.86-.1c.25-.1.82-.39.83-.76a.5.5,0,1,1,1,0c0,.68-.53,1.26-1.43,1.65A5.57,5.57,0,0,1,196.63,118Zm-6.94-7.27h0Z" fill="#231f20"></path><path d="M148.56,106.79c-.39-.37-7.37-3.27-6.33,4.42,0,0-6.77,2.56-4.71,7,0,0-4.35,3.25-2.86,6.31s2.63,3.77,2.63,3.77-3,4.06.13,5.31,6.2-1.09,6.2-1.09,1.72,3.62,3.73,1.54,1.81-6.69,1.81-6.69,2.64-.55,3.63-4.7c0,0,3.2.57,5.12-3.79,0,0,1.81,4.14,5.64,1.9,0,0,.62,5.83,3.35,4.79,0,0,1.5,3.7,5.17.92s8.3-4.71,4.2-9.4c0,0,1.84-2.37-2.19-4.74,0,0,1-4.6-4.14-4.34,0,0-.67-5-4.33-3.78,0,0-2.65-4.41-5.89-1.94,0,0-5.54-5-8.35-.21Z" fill="#68e1fd"></path><path d="M146.06,135.15l-.3,0a3.85,3.85,0,0,1-2.31-1.94,7.12,7.12,0,0,1-6.22.84,2.58,2.58,0,0,1-1.65-1.7c-.41-1.45.55-3.21,1-4a12.76,12.76,0,0,1-2.41-3.65c-1.42-2.92,1.68-5.83,2.7-6.69a3.94,3.94,0,0,1,0-3c.92-2.28,3.74-3.69,4.76-4.14-.28-2.59.34-4.29,1.83-5s3.83-.2,4.86.27l2.56-4.35A4.31,4.31,0,0,1,154,99.51c2.39-.37,4.88,1.41,5.74,2.1a3.55,3.55,0,0,1,2.63-.56,6.06,6.06,0,0,1,3.44,2.55,3,3,0,0,1,2.44.31,5.63,5.63,0,0,1,2.09,3.54h0a4.33,4.33,0,0,1,3.46,1.32,4.39,4.39,0,0,1,.82,3.28,4.92,4.92,0,0,1,2.5,3.07,2.9,2.9,0,0,1-.25,1.86,5.15,5.15,0,0,1,1.47,3.82c-.25,2-2.24,3.41-4.35,4.88-.54.37-1.1.76-1.63,1.16a4.19,4.19,0,0,1-3.62,1,3.66,3.66,0,0,1-2.11-1.76,2,2,0,0,1-1.4-.26c-1.32-.82-1.88-3.15-2.08-4.36a4,4,0,0,1-2.9.23,4.69,4.69,0,0,1-2.31-1.84c-1.62,2.92-3.81,3.27-4.77,3.27h0c-.88,3.14-2.7,4.2-3.51,4.53,0,1.18-.15,4.81-1.95,6.67A2.29,2.29,0,0,1,146.06,135.15ZM143.62,132l.12,0a.47.47,0,0,1,.33.27c.23.47,1,1.74,1.85,1.88a1.25,1.25,0,0,0,1.07-.48c1.83-1.9,1.67-6.28,1.67-6.32a.49.49,0,0,1,.39-.51c.1,0,2.35-.57,3.25-4.32a.5.5,0,0,1,.58-.38c.11,0,2.85.42,4.58-3.5a.5.5,0,0,1,.45-.3h0a.51.51,0,0,1,.46.3,4.26,4.26,0,0,0,2.21,2.14,3.32,3.32,0,0,0,2.72-.48.51.51,0,0,1,.48,0,.5.5,0,0,1,.27.39c.1,1,.61,3.65,1.72,4.32a1,1,0,0,0,.95.06.5.5,0,0,1,.64.28,2.93,2.93,0,0,0,1.66,1.58,3.28,3.28,0,0,0,2.75-.87c.54-.41,1.1-.8,1.65-1.19,1.93-1.33,3.74-2.6,3.93-4.17.12-1-.36-2.05-1.46-3.31a.51.51,0,0,1,0-.64,1.87,1.87,0,0,0,.28-1.44,4.4,4.4,0,0,0-2.32-2.56.51.51,0,0,1-.24-.54,3.61,3.61,0,0,0-.55-2.78,3.65,3.65,0,0,0-3.08-1,.49.49,0,0,1-.52-.43s-.34-2.43-1.7-3.27a2.23,2.23,0,0,0-2-.11.49.49,0,0,1-.59-.21s-1.27-2.08-3-2.41a2.63,2.63,0,0,0-2.16.61.5.5,0,0,1-.64,0s-2.82-2.48-5.23-2.11a3.3,3.3,0,0,0-2.36,1.78L149,107.05a.48.48,0,0,1-.36.24.52.52,0,0,1-.4-.12c-.34-.25-2.86-1.27-4.39-.36-1,.62-1.42,2.08-1.11,4.33a.49.49,0,0,1-.32.53s-3.61,1.4-4.56,3.74A3.06,3.06,0,0,0,138,118a.51.51,0,0,1-.15.62s-4,3-2.71,5.69c1.38,2.84,2.44,3.57,2.45,3.57a.53.53,0,0,1,.22.34.52.52,0,0,1-.09.38c-.43.58-1.47,2.34-1.14,3.51a1.6,1.6,0,0,0,1,1c2.86,1.13,5.69-1,5.72-1A.46.46,0,0,1,143.62,132Z" fill="#231f20"></path><path d="M144.61,128.33s6.39.29,7.65,3.44,4.91,14.56,4.91,14.56,8.69-2.6,10.07-3c0,0-1.78-9.41-1.29-11.62s5.6-10,5.6-10l-2-2.06s-6.31,9.16-6.56,7.75,2.66-9.63,2.66-9.63l-4.19-1.25s-1.28,9.3-2.25,9.15-2.69-9-2.69-9l-5.68,3.1s5.7,7.24,3.88,7.51-8.27-3-8.27-3Z" fill="#fff"></path><path d="M157.17,146.83a.5.5,0,0,1-.48-.34c0-.12-3.65-11.44-4.89-14.53-1.13-2.82-7.15-3.13-7.21-3.13a.5.5,0,0,1-.44-.71l1.84-4a.5.5,0,0,1,.29-.26.53.53,0,0,1,.39,0c2.39,1.2,6.61,3.06,7.9,2.93.05-.74-1.8-3.75-4.13-6.72a.48.48,0,0,1-.1-.4.49.49,0,0,1,.25-.34l5.68-3.1a.51.51,0,0,1,.45,0,.49.49,0,0,1,.28.36,49.64,49.64,0,0,0,2.21,8.4,48.3,48.3,0,0,0,1.75-8.51.51.51,0,0,1,.22-.35.52.52,0,0,1,.42-.06l4.18,1.25a.48.48,0,0,1,.3.26.53.53,0,0,1,0,.39,69.68,69.68,0,0,0-2.61,8.76,67.61,67.61,0,0,0,5.63-7.33.5.5,0,0,1,.77-.06l2,2a.49.49,0,0,1,.06.62c-1.4,2.13-5.14,8-5.52,9.78s.8,8.84,1.29,11.42a.51.51,0,0,1-.35.58c-1.37.38-10,3-10.07,3A.32.32,0,0,1,157.17,146.83Zm-11.81-18.94c1.79.18,6.26.92,7.37,3.69s4.06,11.93,4.77,14.13c1.66-.5,7.28-2.18,9.17-2.73-.36-1.93-1.65-9.35-1.21-11.37s4.44-8.24,5.45-9.78l-1.3-1.33c-5.46,7.85-6.3,7.67-6.63,7.59a.64.64,0,0,1-.49-.55c-.24-1.33,1.77-7.28,2.5-9.38l-3.12-.93c-.41,2.82-1.28,8.16-2.22,8.86a.67.67,0,0,1-.52.14c-.32,0-1.27-.2-3-8.75L151.59,120c1.59,2.07,4.42,6,3.9,7.31a.86.86,0,0,1-.71.54c-1.7.24-6.5-2-8.1-2.79Z" fill="#231f20"></path><path d="M158.13,114.36c-4,7.23-9.29,6.16-9.29,6.16" fill="#68e1fd"></path><path d="M149.62,121.08a4.76,4.76,0,0,1-.88-.07.5.5,0,0,1,.2-1c.2,0,5,.88,8.75-5.91a.5.5,0,0,1,.87.49C155.36,120.38,151.37,121.08,149.62,121.08Z" fill="#231f20"></path><path d="M147.05,121.77s4.31,2.17-.14,5.71c0,0,1.4,2.37-1.85,3.24s-4.79-.77-4.79-.77" fill="#68e1fd"></path><path d="M143.23,131.47a4.62,4.62,0,0,1-3.32-1.18.49.49,0,0,1,0-.7.5.5,0,0,1,.71,0c.05,0,1.39,1.39,4.29.62a2.31,2.31,0,0,0,1.69-1.13,1.72,1.72,0,0,0-.14-1.37.52.52,0,0,1,.12-.65c1.3-1,1.91-2,1.82-2.88-.13-1.21-1.58-2-1.59-2a.5.5,0,0,1-.23-.67.52.52,0,0,1,.68-.22,4,4,0,0,1,2.13,2.78c.12,1.16-.51,2.35-1.88,3.52a2.61,2.61,0,0,1,0,1.86,3.21,3.21,0,0,1-2.36,1.72A7.65,7.65,0,0,1,143.23,131.47Z" fill="#231f20"></path><path d="M159.64,114.73A2.88,2.88,0,0,0,161,118c.43.18,3.94.68,3.84-.28a3.17,3.17,0,0,0,5.86,1.32c-.51,1.11.56,2.46,1.78,2.59a4,4,0,0,0,3.2-1.5,1.69,1.69,0,0,0,.58-1.67" fill="#68e1fd"></path><path d="M172.81,122.1h-.35a2.75,2.75,0,0,1-2-1.39,1.75,1.75,0,0,1-.19-.42,3.74,3.74,0,0,1-3,.66,3.78,3.78,0,0,1-2.64-2.33,9,9,0,0,1-3.75-.18,3.4,3.4,0,0,1-1.7-3.79.5.5,0,0,1,1,.18,2.41,2.41,0,0,0,1.1,2.68,7.62,7.62,0,0,0,3.16.13.5.5,0,0,1,.44-.45.51.51,0,0,1,.55.45h0a2.66,2.66,0,0,0,4.93,1.11.5.5,0,0,1,.89.47,1.07,1.07,0,0,0,.09,1,1.76,1.76,0,0,0,1.28.88,3.5,3.5,0,0,0,2.78-1.34c.2-.22.65-.75.49-1.14a.49.49,0,0,1,.27-.65.51.51,0,0,1,.65.27,2.09,2.09,0,0,1-.68,2.2A4.77,4.77,0,0,1,172.81,122.1Z" fill="#231f20"></path><path d="M106.08,71.32l-1.26,28.5a1.5,1.5,0,0,1-1.58,1.44h-.36a1.51,1.51,0,0,1-1.44-1.58l1.26-28.5a1.62,1.62,0,0,0-1.55-1.69H101A1.63,1.63,0,0,0,99.32,71L98.05,99.76a1.52,1.52,0,0,1-1.58,1.45h0A1.52,1.52,0,0,1,95,99.63L96.3,70.89a1.62,1.62,0,0,0-1.55-1.7l-1.22,0a1.62,1.62,0,0,0-1.7,1.55L90.57,99.31A1.51,1.51,0,0,1,89,100.75h0a1.51,1.51,0,0,1-1.44-1.58L89,70.53a1.63,1.63,0,0,0-1.55-1.66l-.48,0a1.6,1.6,0,0,0-1.67,1.37c-1.07,6.89-3.46,25.32-3.56,31.79-.14,8.46,8.12,13.18,8.12,13.18s-5.61,99.42-6.08,107.12c-.58,9.51,2.82,10.31,7,10.5s6.36-2.58,6.78-6.69c.63-6.08,3.36-109.47,3.36-109.47,6-3.61,9.23-8.91,9.35-14.47.1-4.29-.58-23.66-1-30.88a1.63,1.63,0,0,0-1.55-1.53h0A1.63,1.63,0,0,0,106.08,71.32Z" fill="#fff"></path><path d="M91.18,233.32h-.41c-2.06-.09-4.2-.32-5.68-2s-2.08-4.56-1.81-9.07c.45-7.4,5.72-100.76,6.07-106.82-1.47-.92-8.24-5.57-8.11-13.46.09-6.28,2.4-24.34,3.56-31.86A2.11,2.11,0,0,1,87,68.35l.48,0a2.13,2.13,0,0,1,2,2.17L88,99.19a1,1,0,0,0,.26.73,1,1,0,0,0,.71.33,1,1,0,0,0,.75-.26,1,1,0,0,0,.33-.7l1.26-28.62a2.14,2.14,0,0,1,2.22-2l1.22,0a2.15,2.15,0,0,1,1.48.69,2.1,2.1,0,0,1,.55,1.53L95.53,99.65a1,1,0,0,0,.26.73,1.05,1.05,0,0,0,.7.33,1,1,0,0,0,1.06-1L98.82,71a2.11,2.11,0,0,1,.69-1.47A2.05,2.05,0,0,1,101,69h.14a2.11,2.11,0,0,1,1.47.69,2.08,2.08,0,0,1,.55,1.52l-1.26,28.5a1,1,0,0,0,.26.73,1,1,0,0,0,.7.33l.37,0a1,1,0,0,0,1-1l1.26-28.5h0a2.14,2.14,0,0,1,2.22-2,2.12,2.12,0,0,1,2,2c.36,7,1,26.54,1,30.91-.13,5.78-3.54,11.14-9.36,14.74-.18,7.08-2.74,103.31-3.35,109.24C97.6,230.73,95.1,233.32,91.18,233.32Zm-4.28-164a1.12,1.12,0,0,0-1.11.94c-1.16,7.5-3.46,25.49-3.55,31.72-.13,8.06,7.79,12.7,7.87,12.75a.48.48,0,0,1,.25.46c0,1-5.62,99.5-6.08,107.12-.26,4.17.25,6.9,1.55,8.34s3.13,1.55,5,1.63c4.87.19,6-3.82,6.27-6.24.61-6,3.32-108.4,3.35-109.43a.51.51,0,0,1,.24-.42c5.67-3.42,9-8.55,9.11-14,.1-4.36-.59-23.9-1-30.84a1.13,1.13,0,0,0-2.25,0l-1.26,28.5a2,2,0,0,1-2.1,1.92h-.36a2,2,0,0,1-1.39-.65,2,2,0,0,1-.53-1.45l1.26-28.5A1.11,1.11,0,0,0,101.13,70H101A1.13,1.13,0,0,0,99.82,71L98.55,99.79a2,2,0,0,1-2.1,1.92,2,2,0,0,1-1.39-.66,2,2,0,0,1-.53-1.44L95.8,70.87a1.1,1.1,0,0,0-.29-.81,1.15,1.15,0,0,0-.78-.37l-1.22,0a1.08,1.08,0,0,0-.81.29,1.17,1.17,0,0,0-.37.78L91.07,99.33a2,2,0,0,1-.66,1.4,2,2,0,0,1-1.44.52,2,2,0,0,1-1.43-.65A2,2,0,0,1,87,99.14L88.5,70.5a1.12,1.12,0,0,0-1.07-1.13l-.48,0Z" fill="#231f20"></path><path d="M289.41,96.09c-.65,11.87-.89,63.37-.57,68.92s11.1,5,11.1,5l1.9,56.88a6.76,6.76,0,0,0,7.15,6.57h0a6.77,6.77,0,0,0,6.36-7.15L306.34,72a3.44,3.44,0,0,0-5.47-2.58C296.32,72.73,290.28,80.13,289.41,96.09Z" fill="#fff"></path><path d="M308.59,234a7.26,7.26,0,0,1-7.25-7.07l-1.88-56.37c-2.23.05-10.81-.15-11.12-5.47s-.08-57.16.57-69c.87-15.94,6.83-23.52,11.67-27.07a3.95,3.95,0,0,1,6.26,3l9,154.31a7.27,7.27,0,0,1-6.83,7.67Zm-8.65-64.46a.51.51,0,0,1,.34.13.48.48,0,0,1,.16.35l1.9,56.88a6.22,6.22,0,0,0,2,4.45,6.27,6.27,0,0,0,8.92-.45,6.22,6.22,0,0,0,1.57-4.53L305.85,72a2.93,2.93,0,0,0-1.69-2.5,2.88,2.88,0,0,0-3,.29c-4.67,3.42-10.41,10.77-11.26,26.32l-.5,0,.5,0c-.65,11.8-.88,63.49-.57,68.86.29,5,10.47,4.52,10.58,4.51Z" fill="#231f20"></path><path d="M172.48,63.14s-5.44,19.36-11,26.07a27.17,27.17,0,0,1-29.43.06C126.51,82.43,121,63.14,121,63.14h6.16a28.8,28.8,0,0,1,39.18,0Z" fill="#fff"></path><path d="M146.78,94.07a29.12,29.12,0,0,1-15-4.38l-.11-.1c-5.57-6.85-11-25.52-11.19-26.32a.5.5,0,0,1,.08-.43.48.48,0,0,1,.4-.2h6a29.31,29.31,0,0,1,39.58,0h6a.48.48,0,0,1,.4.2.52.52,0,0,1,.08.44c-.22.79-5.53,19.53-11.06,26.25a.52.52,0,0,1-.11.1A28.89,28.89,0,0,1,146.78,94.07ZM132.42,88.9a26.7,26.7,0,0,0,28.75-.06c4.83-5.93,9.66-21.82,10.65-25.2h-5.5a.51.51,0,0,1-.35-.15,28.32,28.32,0,0,0-38.48,0,.51.51,0,0,1-.35.15h-5.49C122.66,67,127.56,82.86,132.42,88.9Z" fill="#231f20"></path><path d="M172.85,59.34a19.82,19.82,0,0,1-.37,3.8c-2.08,10.74-12.82,18.92-25.75,18.92S123.06,73.88,121,63.14a19.82,19.82,0,0,1-.37-3.8c0-12.54,11.7-22.71,26.12-22.71S172.85,46.8,172.85,59.34Z" fill="#231f20"></path><path d="M146.73,82.6c-13.06,0-24.11-8.14-26.28-19.36a20.22,20.22,0,0,1-.38-3.9c0-12.82,12-23.25,26.66-23.25s26.66,10.43,26.66,23.25a20.22,20.22,0,0,1-.38,3.9C170.84,74.46,159.79,82.6,146.73,82.6Zm0-45.43c-14.11,0-25.58,9.94-25.58,22.17a19,19,0,0,0,.36,3.7c2.07,10.71,12.68,18.48,25.22,18.48S169.88,73.75,172,63a19,19,0,0,0,.36-3.7C172.31,47.11,160.84,37.17,146.73,37.17Z" fill="#231f20"></path><path d="M172.48,63.14c-2.08,10.74-12.82,18.92-25.75,18.92S123.06,73.88,121,63.14c2.07-10.75,12.81-18.93,25.75-18.93S170.41,52.39,172.48,63.14Z" fill="#68e1fd"></path><path d="M146.73,82.56c-13,0-24.08-8.13-26.24-19.33a.54.54,0,0,1,0-.18c2.15-11.21,13.19-19.34,26.24-19.34S170.82,51.84,173,63.05a.54.54,0,0,1,0,.18C170.81,74.43,159.77,82.56,146.73,82.56ZM121.49,63.14c2.12,10.68,12.71,18.42,25.24,18.42S169.85,73.82,172,63.14c-2.11-10.68-12.7-18.43-25.24-18.43S123.6,52.46,121.49,63.14Z" fill="#231f20"></path><circle cx="193.64" cy="65.1" r="10.6" fill="#231f20"></circle><path d="M193.63,76.23a11.14,11.14,0,1,1,8.79-4.29A11.1,11.1,0,0,1,193.63,76.23Zm0-21.19a10.05,10.05,0,1,0,6.17,2.12A10.05,10.05,0,0,0,193.65,55Z" fill="#231f20"></path><circle cx="221.05" cy="68.57" r="10.6" fill="#231f20"></circle><path d="M221,79.7a11.14,11.14,0,1,1,8.79-4.29h0A11.1,11.1,0,0,1,221,79.7Zm0-21.19a10.05,10.05,0,1,0,6.17,2.12A10.07,10.07,0,0,0,221.06,58.51Zm8.35,16.57h0Z" fill="#231f20"></path><path d="M194.09,57.77a6.41,6.41,0,0,0,1.18-3.66,3.1,3.1,0,0,0-2.65,1.25,9,9,0,0,0-1.37,2.71,10.7,10.7,0,0,0-8.11.37,39.28,39.28,0,0,0,6.44,1.38c-1.76,1.51-1.75,4.19-1.59,6.5l2.29-4.19a11.59,11.59,0,0,0,4.39,2.6c.43.14,4,.58,4,.56a11.12,11.12,0,0,0-3.5-4.42,21.56,21.56,0,0,1,3.91-2c.35-.14,3.19-1.27,3.22-1.25A10.53,10.53,0,0,0,194.09,57.77Z" fill="#fff"></path><path d="M188,66.82h-.11a.51.51,0,0,1-.39-.45c-.15-2.28-.11-4.57,1.07-6.18A39.36,39.36,0,0,1,183,58.92a.52.52,0,0,1-.35-.44.51.51,0,0,1,.29-.49,11.12,11.12,0,0,1,8-.55,8.57,8.57,0,0,1,1.28-2.4,3.62,3.62,0,0,1,3.09-1.43.51.51,0,0,1,.45.5,7,7,0,0,1-.58,2.74,10.68,10.68,0,0,1,7.35.3h0a.5.5,0,0,1-.11.94c-.26.08-2,.77-2.68,1l-.46.18a22.15,22.15,0,0,0-3.24,1.59,11.52,11.52,0,0,1,3.1,4.18.51.51,0,0,1-.09.54c-.38.42-4.52-.42-4.55-.43a12.22,12.22,0,0,1-4.1-2.27l-2,3.63A.51.51,0,0,1,188,66.82Zm2.29-5.19a.5.5,0,0,1,.35.14,10.88,10.88,0,0,0,4.2,2.48c.25.08,1.95.31,3,.45a10.62,10.62,0,0,0-3-3.43.51.51,0,0,1,0-.82,21.61,21.61,0,0,1,4-2.06l.46-.18,1.5-.59a10.57,10.57,0,0,0-6.6.61.5.5,0,0,1-.6-.75,5.92,5.92,0,0,0,1.05-2.87A2.94,2.94,0,0,0,193,55.67a8.77,8.77,0,0,0-1.28,2.58.49.49,0,0,1-.64.29,10.1,10.1,0,0,0-6.36-.17,41.49,41.49,0,0,0,4.92,1,.49.49,0,0,1,.42.35.51.51,0,0,1-.16.52c-1.13,1-1.45,2.55-1.47,4.28l1.41-2.59a.5.5,0,0,1,.37-.26Z" fill="#231f20"></path><path d="M226.32,65.62A6.4,6.4,0,0,0,227.49,62a3.13,3.13,0,0,0-2.65,1.24,9.4,9.4,0,0,0-1.37,2.72,10.66,10.66,0,0,0-8.11.37,39.5,39.5,0,0,0,6.44,1.38c-1.76,1.51-1.74,4.19-1.59,6.5l2.3-4.2a11.27,11.27,0,0,0,4.39,2.6c.42.15,4,.59,4,.57a10.92,10.92,0,0,0-3.5-4.43,21.65,21.65,0,0,1,3.92-2c.34-.13,3.18-1.26,3.22-1.25A10.57,10.57,0,0,0,226.32,65.62Z" fill="#fff"></path><path d="M220.21,74.67h-.1a.52.52,0,0,1-.4-.46c-.15-2.27-.1-4.56,1.08-6.17a40.79,40.79,0,0,1-5.57-1.26.52.52,0,0,1-.36-.44.5.5,0,0,1,.29-.49,11,11,0,0,1,8-.55,8.54,8.54,0,0,1,1.27-2.4,3.64,3.64,0,0,1,3.1-1.43.5.5,0,0,1,.44.5,6.79,6.79,0,0,1-.58,2.73,10.7,10.7,0,0,1,7.36.31h0a.5.5,0,0,1-.11.94c-.26.09-2,.78-2.68,1l-.46.18a21.65,21.65,0,0,0-3.24,1.59,11.52,11.52,0,0,1,3.1,4.18.47.47,0,0,1-.09.53c-.38.42-4.51-.41-4.55-.42a12.17,12.17,0,0,1-4.1-2.28l-2,3.64A.51.51,0,0,1,220.21,74.67Zm2.3-5.2a.52.52,0,0,1,.35.14,10.82,10.82,0,0,0,4.2,2.49c.24.08,1.94.31,3,.44a10.48,10.48,0,0,0-3-3.43.5.5,0,0,1,0-.82,21.88,21.88,0,0,1,4-2.05l.45-.18,1.5-.6a10.61,10.61,0,0,0-6.59.62.51.51,0,0,1-.59-.15.5.5,0,0,1,0-.6A5.87,5.87,0,0,0,227,62.46a2.91,2.91,0,0,0-1.74,1.06,9,9,0,0,0-1.29,2.57.5.5,0,0,1-.64.3,10,10,0,0,0-6.36-.17,39.54,39.54,0,0,0,4.92,1,.5.5,0,0,1,.27.88c-1.13,1-1.45,2.54-1.48,4.27l1.42-2.59a.5.5,0,0,1,.36-.25Z" fill="#231f20"></path><circle cx="205.15" cy="89.58" r="8.03" fill="#231f20"></circle><path d="M205.14,98.14a8.56,8.56,0,0,1-6.74-13.83,8.56,8.56,0,1,1,13.51,10.53h0A8.59,8.59,0,0,1,205.14,98.14Zm0-16a7.48,7.48,0,1,0,4.6,1.58A7.47,7.47,0,0,0,205.16,82.09Zm6.32,12.42h0Z" fill="#231f20"></path><path d="M209.14,87.34a4.81,4.81,0,0,0,.89-2.77,2.38,2.38,0,0,0-2,.94,7.11,7.11,0,0,0-1,2.06,8.07,8.07,0,0,0-6.14.28,31.06,31.06,0,0,0,4.87,1.05c-1.33,1.14-1.32,3.17-1.2,4.92l1.74-3.18a8.63,8.63,0,0,0,3.32,2c.33.11,3.06.44,3,.43A8.35,8.35,0,0,0,210,89.69a16.94,16.94,0,0,1,3-1.53c.27-.1,2.42-1,2.44-.94A8,8,0,0,0,209.14,87.34Z" fill="#fff"></path><path d="M204.52,94.32h-.11a.52.52,0,0,1-.39-.46,7.55,7.55,0,0,1,.73-4.59,30.88,30.88,0,0,1-4.05-.93.49.49,0,0,1-.35-.44.5.5,0,0,1,.28-.49,8.52,8.52,0,0,1,6.06-.45,6.1,6.1,0,0,1,.95-1.75,2.82,2.82,0,0,1,2.45-1.13.51.51,0,0,1,.44.5,5.32,5.32,0,0,1-.35,1.89,8,8,0,0,1,5.41.31h0a.51.51,0,0,1-.1.94c-.21.07-1.51.58-2,.77l-.36.15a16.15,16.15,0,0,0-2.29,1.11,8.9,8.9,0,0,1,2.25,3.1.49.49,0,0,1-.09.53c-.37.41-3.55-.28-3.58-.29a9.32,9.32,0,0,1-3-1.65L205,94.06A.51.51,0,0,1,204.52,94.32Zm1.74-4.18a.52.52,0,0,1,.35.14,8,8,0,0,0,3.13,1.85c.18.06,1.23.2,2,.31a7.72,7.72,0,0,0-2.09-2.35.53.53,0,0,1-.2-.42.51.51,0,0,1,.23-.4,16.83,16.83,0,0,1,3-1.57l.37-.14.75-.3a8,8,0,0,0-4.54.54.5.5,0,0,1-.6-.75,4.41,4.41,0,0,0,.76-2,2.2,2.2,0,0,0-1.09.73,6.62,6.62,0,0,0-.95,1.92.5.5,0,0,1-.64.29,7.6,7.6,0,0,0-4.3-.25,28.08,28.08,0,0,0,3.27.61.5.5,0,0,1,.26.87A3.72,3.72,0,0,0,205,91.91l.83-1.51a.47.47,0,0,1,.36-.25Z" fill="#231f20"></path></g></svg>